<mxfile host="app.diagrams.net" modified="2022-09-05T12:21:36.068Z" agent="5.0 (Macintosh; Intel Mac OS X 10_15_7) AppleWebKit/537.36 (KHTML, like Gecko) Chrome/104.0.0.0 Safari/537.36" etag="BdaPvlvP_ANZgNEZ-uUh" version="20.2.8" type="github">
  <diagram id="bGOVg1Ngl9D-0NkrlkVv" name="第 1 页">
    <mxGraphModel dx="1234" dy="825" grid="1" gridSize="10" guides="1" tooltips="1" connect="1" arrows="1" fold="1" page="1" pageScale="1" pageWidth="3300" pageHeight="4681" math="0" shadow="0">
      <root>
        <mxCell id="0" />
        <mxCell id="1" parent="0" />
        <mxCell id="nd7dtsp43JFpofKptU_Q-15" style="edgeStyle=orthogonalEdgeStyle;rounded=0;orthogonalLoop=1;jettySize=auto;html=1;exitX=0.5;exitY=1;exitDx=0;exitDy=0;" edge="1" parent="1" source="nd7dtsp43JFpofKptU_Q-1" target="nd7dtsp43JFpofKptU_Q-2">
          <mxGeometry relative="1" as="geometry" />
        </mxCell>
        <mxCell id="nd7dtsp43JFpofKptU_Q-1" value="request" style="rounded=1;whiteSpace=wrap;html=1;" vertex="1" parent="1">
          <mxGeometry x="450" y="70" width="90" height="40" as="geometry" />
        </mxCell>
        <mxCell id="nd7dtsp43JFpofKptU_Q-16" style="edgeStyle=orthogonalEdgeStyle;rounded=0;orthogonalLoop=1;jettySize=auto;html=1;exitX=0.5;exitY=1;exitDx=0;exitDy=0;entryX=0.5;entryY=0;entryDx=0;entryDy=0;" edge="1" parent="1" source="nd7dtsp43JFpofKptU_Q-2" target="nd7dtsp43JFpofKptU_Q-4">
          <mxGeometry relative="1" as="geometry" />
        </mxCell>
        <mxCell id="nd7dtsp43JFpofKptU_Q-2" value="protocol check" style="rounded=0;whiteSpace=wrap;html=1;" vertex="1" parent="1">
          <mxGeometry x="445" y="130" width="100" height="40" as="geometry" />
        </mxCell>
        <mxCell id="nd7dtsp43JFpofKptU_Q-21" style="edgeStyle=orthogonalEdgeStyle;rounded=0;orthogonalLoop=1;jettySize=auto;html=1;exitX=0.5;exitY=1;exitDx=0;exitDy=0;" edge="1" parent="1" source="nd7dtsp43JFpofKptU_Q-3" target="nd7dtsp43JFpofKptU_Q-8">
          <mxGeometry relative="1" as="geometry" />
        </mxCell>
        <mxCell id="nd7dtsp43JFpofKptU_Q-3" value="YMAL" style="rounded=0;whiteSpace=wrap;html=1;" vertex="1" parent="1">
          <mxGeometry x="267" y="483" width="100" height="40" as="geometry" />
        </mxCell>
        <mxCell id="nd7dtsp43JFpofKptU_Q-37" style="edgeStyle=orthogonalEdgeStyle;rounded=0;orthogonalLoop=1;jettySize=auto;html=1;exitX=1;exitY=0.5;exitDx=0;exitDy=0;" edge="1" parent="1" source="nd7dtsp43JFpofKptU_Q-4" target="nd7dtsp43JFpofKptU_Q-35">
          <mxGeometry relative="1" as="geometry" />
        </mxCell>
        <mxCell id="nd7dtsp43JFpofKptU_Q-38" value="N" style="edgeLabel;html=1;align=center;verticalAlign=middle;resizable=0;points=[];" vertex="1" connectable="0" parent="nd7dtsp43JFpofKptU_Q-37">
          <mxGeometry x="-0.7191" y="-3" relative="1" as="geometry">
            <mxPoint y="-3" as="offset" />
          </mxGeometry>
        </mxCell>
        <mxCell id="nd7dtsp43JFpofKptU_Q-42" style="edgeStyle=orthogonalEdgeStyle;rounded=0;orthogonalLoop=1;jettySize=auto;html=1;exitX=0;exitY=0.5;exitDx=0;exitDy=0;" edge="1" parent="1" source="nd7dtsp43JFpofKptU_Q-4" target="nd7dtsp43JFpofKptU_Q-39">
          <mxGeometry relative="1" as="geometry" />
        </mxCell>
        <mxCell id="nd7dtsp43JFpofKptU_Q-48" value="Y" style="edgeLabel;html=1;align=center;verticalAlign=middle;resizable=0;points=[];" vertex="1" connectable="0" parent="nd7dtsp43JFpofKptU_Q-42">
          <mxGeometry x="-0.0667" y="-2" relative="1" as="geometry">
            <mxPoint x="1" y="1" as="offset" />
          </mxGeometry>
        </mxCell>
        <mxCell id="nd7dtsp43JFpofKptU_Q-46" style="edgeStyle=orthogonalEdgeStyle;rounded=0;orthogonalLoop=1;jettySize=auto;html=1;exitX=0.5;exitY=1;exitDx=0;exitDy=0;" edge="1" parent="1" source="nd7dtsp43JFpofKptU_Q-4" target="nd7dtsp43JFpofKptU_Q-41">
          <mxGeometry relative="1" as="geometry" />
        </mxCell>
        <mxCell id="nd7dtsp43JFpofKptU_Q-47" value="Y" style="edgeLabel;html=1;align=center;verticalAlign=middle;resizable=0;points=[];" vertex="1" connectable="0" parent="nd7dtsp43JFpofKptU_Q-46">
          <mxGeometry x="-0.3429" y="2" relative="1" as="geometry">
            <mxPoint x="-3" as="offset" />
          </mxGeometry>
        </mxCell>
        <mxCell id="nd7dtsp43JFpofKptU_Q-4" value="succ" style="rhombus;whiteSpace=wrap;html=1;" vertex="1" parent="1">
          <mxGeometry x="455" y="190" width="80" height="80" as="geometry" />
        </mxCell>
        <mxCell id="nd7dtsp43JFpofKptU_Q-22" style="edgeStyle=orthogonalEdgeStyle;rounded=0;orthogonalLoop=1;jettySize=auto;html=1;exitX=0.5;exitY=1;exitDx=0;exitDy=0;" edge="1" parent="1" source="nd7dtsp43JFpofKptU_Q-5" target="nd7dtsp43JFpofKptU_Q-9">
          <mxGeometry relative="1" as="geometry" />
        </mxCell>
        <mxCell id="nd7dtsp43JFpofKptU_Q-5" value="K2FS" style="rounded=0;whiteSpace=wrap;html=1;" vertex="1" parent="1">
          <mxGeometry x="387" y="483" width="100" height="40" as="geometry" />
        </mxCell>
        <mxCell id="nd7dtsp43JFpofKptU_Q-23" style="edgeStyle=orthogonalEdgeStyle;rounded=0;orthogonalLoop=1;jettySize=auto;html=1;exitX=0.5;exitY=1;exitDx=0;exitDy=0;" edge="1" parent="1" source="nd7dtsp43JFpofKptU_Q-6" target="nd7dtsp43JFpofKptU_Q-10">
          <mxGeometry relative="1" as="geometry" />
        </mxCell>
        <mxCell id="nd7dtsp43JFpofKptU_Q-6" value="FS1O" style="rounded=0;whiteSpace=wrap;html=1;" vertex="1" parent="1">
          <mxGeometry x="507" y="483" width="100" height="40" as="geometry" />
        </mxCell>
        <mxCell id="nd7dtsp43JFpofKptU_Q-24" style="edgeStyle=orthogonalEdgeStyle;rounded=0;orthogonalLoop=1;jettySize=auto;html=1;exitX=0.5;exitY=1;exitDx=0;exitDy=0;entryX=0.5;entryY=0;entryDx=0;entryDy=0;" edge="1" parent="1" source="nd7dtsp43JFpofKptU_Q-7" target="nd7dtsp43JFpofKptU_Q-11">
          <mxGeometry relative="1" as="geometry" />
        </mxCell>
        <mxCell id="nd7dtsp43JFpofKptU_Q-7" value="FS1B" style="rounded=0;whiteSpace=wrap;html=1;" vertex="1" parent="1">
          <mxGeometry x="627" y="483" width="100" height="40" as="geometry" />
        </mxCell>
        <mxCell id="nd7dtsp43JFpofKptU_Q-25" style="edgeStyle=orthogonalEdgeStyle;rounded=0;orthogonalLoop=1;jettySize=auto;html=1;exitX=0.5;exitY=1;exitDx=0;exitDy=0;" edge="1" parent="1" source="nd7dtsp43JFpofKptU_Q-8" target="nd7dtsp43JFpofKptU_Q-12">
          <mxGeometry relative="1" as="geometry" />
        </mxCell>
        <mxCell id="nd7dtsp43JFpofKptU_Q-8" value="statusfilter" style="rounded=0;whiteSpace=wrap;html=1;" vertex="1" parent="1">
          <mxGeometry x="267" y="573" width="100" height="40" as="geometry" />
        </mxCell>
        <mxCell id="nd7dtsp43JFpofKptU_Q-26" style="edgeStyle=orthogonalEdgeStyle;rounded=0;orthogonalLoop=1;jettySize=auto;html=1;exitX=0.5;exitY=1;exitDx=0;exitDy=0;entryX=0.5;entryY=0;entryDx=0;entryDy=0;" edge="1" parent="1" source="nd7dtsp43JFpofKptU_Q-9" target="nd7dtsp43JFpofKptU_Q-12">
          <mxGeometry relative="1" as="geometry" />
        </mxCell>
        <mxCell id="nd7dtsp43JFpofKptU_Q-9" value="statusfilter" style="rounded=0;whiteSpace=wrap;html=1;" vertex="1" parent="1">
          <mxGeometry x="387" y="573" width="100" height="40" as="geometry" />
        </mxCell>
        <mxCell id="nd7dtsp43JFpofKptU_Q-27" style="edgeStyle=orthogonalEdgeStyle;rounded=0;orthogonalLoop=1;jettySize=auto;html=1;exitX=0.5;exitY=1;exitDx=0;exitDy=0;entryX=0.5;entryY=0;entryDx=0;entryDy=0;" edge="1" parent="1" source="nd7dtsp43JFpofKptU_Q-10" target="nd7dtsp43JFpofKptU_Q-12">
          <mxGeometry relative="1" as="geometry" />
        </mxCell>
        <mxCell id="nd7dtsp43JFpofKptU_Q-10" value="statusfilter" style="rounded=0;whiteSpace=wrap;html=1;" vertex="1" parent="1">
          <mxGeometry x="507" y="573" width="100" height="40" as="geometry" />
        </mxCell>
        <mxCell id="nd7dtsp43JFpofKptU_Q-28" style="edgeStyle=orthogonalEdgeStyle;rounded=0;orthogonalLoop=1;jettySize=auto;html=1;exitX=0.5;exitY=1;exitDx=0;exitDy=0;entryX=0.5;entryY=0;entryDx=0;entryDy=0;" edge="1" parent="1" source="nd7dtsp43JFpofKptU_Q-11" target="nd7dtsp43JFpofKptU_Q-12">
          <mxGeometry relative="1" as="geometry" />
        </mxCell>
        <mxCell id="nd7dtsp43JFpofKptU_Q-11" value="statusfilter" style="rounded=0;whiteSpace=wrap;html=1;" vertex="1" parent="1">
          <mxGeometry x="627" y="573" width="100" height="40" as="geometry" />
        </mxCell>
        <mxCell id="nd7dtsp43JFpofKptU_Q-29" style="edgeStyle=orthogonalEdgeStyle;rounded=0;orthogonalLoop=1;jettySize=auto;html=1;exitX=0.5;exitY=1;exitDx=0;exitDy=0;entryX=0.5;entryY=0;entryDx=0;entryDy=0;" edge="1" parent="1" source="nd7dtsp43JFpofKptU_Q-12" target="nd7dtsp43JFpofKptU_Q-13">
          <mxGeometry relative="1" as="geometry" />
        </mxCell>
        <mxCell id="nd7dtsp43JFpofKptU_Q-31" style="edgeStyle=orthogonalEdgeStyle;rounded=0;orthogonalLoop=1;jettySize=auto;html=1;exitX=0.5;exitY=1;exitDx=0;exitDy=0;dashed=1;" edge="1" parent="1" source="nd7dtsp43JFpofKptU_Q-12" target="nd7dtsp43JFpofKptU_Q-30">
          <mxGeometry relative="1" as="geometry" />
        </mxCell>
        <mxCell id="nd7dtsp43JFpofKptU_Q-12" value="merge" style="rounded=0;whiteSpace=wrap;html=1;" vertex="1" parent="1">
          <mxGeometry x="445" y="673" width="100" height="40" as="geometry" />
        </mxCell>
        <mxCell id="nd7dtsp43JFpofKptU_Q-32" style="edgeStyle=orthogonalEdgeStyle;rounded=0;orthogonalLoop=1;jettySize=auto;html=1;exitX=0.5;exitY=1;exitDx=0;exitDy=0;entryX=0.5;entryY=0;entryDx=0;entryDy=0;" edge="1" parent="1" source="nd7dtsp43JFpofKptU_Q-13" target="nd7dtsp43JFpofKptU_Q-14">
          <mxGeometry relative="1" as="geometry" />
        </mxCell>
        <mxCell id="nd7dtsp43JFpofKptU_Q-13" value="rank A" style="rounded=0;whiteSpace=wrap;html=1;" vertex="1" parent="1">
          <mxGeometry x="355" y="753" width="100" height="40" as="geometry" />
        </mxCell>
        <mxCell id="nd7dtsp43JFpofKptU_Q-61" style="edgeStyle=orthogonalEdgeStyle;rounded=0;orthogonalLoop=1;jettySize=auto;html=1;exitX=0.5;exitY=1;exitDx=0;exitDy=0;entryX=0.5;entryY=0;entryDx=0;entryDy=0;" edge="1" parent="1" source="nd7dtsp43JFpofKptU_Q-14" target="nd7dtsp43JFpofKptU_Q-60">
          <mxGeometry relative="1" as="geometry" />
        </mxCell>
        <mxCell id="nd7dtsp43JFpofKptU_Q-14" value="CacheSet" style="rounded=0;whiteSpace=wrap;html=1;" vertex="1" parent="1">
          <mxGeometry x="445" y="855" width="100" height="40" as="geometry" />
        </mxCell>
        <mxCell id="nd7dtsp43JFpofKptU_Q-34" style="edgeStyle=orthogonalEdgeStyle;rounded=0;orthogonalLoop=1;jettySize=auto;html=1;exitX=0.5;exitY=1;exitDx=0;exitDy=0;entryX=0.5;entryY=0;entryDx=0;entryDy=0;dashed=1;" edge="1" parent="1" source="nd7dtsp43JFpofKptU_Q-30" target="nd7dtsp43JFpofKptU_Q-14">
          <mxGeometry relative="1" as="geometry" />
        </mxCell>
        <mxCell id="nd7dtsp43JFpofKptU_Q-30" value="rank B" style="rounded=0;whiteSpace=wrap;html=1;dashed=1;" vertex="1" parent="1">
          <mxGeometry x="527" y="753" width="100" height="40" as="geometry" />
        </mxCell>
        <mxCell id="nd7dtsp43JFpofKptU_Q-35" value="defaultResponse" style="rounded=0;whiteSpace=wrap;html=1;" vertex="1" parent="1">
          <mxGeometry x="690" y="920" width="100" height="40" as="geometry" />
        </mxCell>
        <mxCell id="nd7dtsp43JFpofKptU_Q-43" style="edgeStyle=orthogonalEdgeStyle;rounded=0;orthogonalLoop=1;jettySize=auto;html=1;exitX=0.5;exitY=1;exitDx=0;exitDy=0;entryX=0.5;entryY=0;entryDx=0;entryDy=0;" edge="1" parent="1" source="nd7dtsp43JFpofKptU_Q-39" target="nd7dtsp43JFpofKptU_Q-40">
          <mxGeometry relative="1" as="geometry" />
        </mxCell>
        <mxCell id="nd7dtsp43JFpofKptU_Q-39" value="cache key" style="rounded=0;whiteSpace=wrap;html=1;" vertex="1" parent="1">
          <mxGeometry x="310" y="210" width="100" height="40" as="geometry" />
        </mxCell>
        <mxCell id="nd7dtsp43JFpofKptU_Q-45" style="edgeStyle=orthogonalEdgeStyle;rounded=0;orthogonalLoop=1;jettySize=auto;html=1;exitX=0.5;exitY=1;exitDx=0;exitDy=0;entryX=0;entryY=0.5;entryDx=0;entryDy=0;" edge="1" parent="1" source="nd7dtsp43JFpofKptU_Q-40" target="nd7dtsp43JFpofKptU_Q-41">
          <mxGeometry relative="1" as="geometry" />
        </mxCell>
        <mxCell id="nd7dtsp43JFpofKptU_Q-40" value="RedisGet" style="rounded=0;whiteSpace=wrap;html=1;" vertex="1" parent="1">
          <mxGeometry x="310" y="280" width="100" height="40" as="geometry" />
        </mxCell>
        <mxCell id="nd7dtsp43JFpofKptU_Q-49" style="edgeStyle=orthogonalEdgeStyle;rounded=0;orthogonalLoop=1;jettySize=auto;html=1;exitX=0.5;exitY=1;exitDx=0;exitDy=0;entryX=0.5;entryY=0;entryDx=0;entryDy=0;" edge="1" parent="1" source="nd7dtsp43JFpofKptU_Q-41" target="nd7dtsp43JFpofKptU_Q-3">
          <mxGeometry relative="1" as="geometry" />
        </mxCell>
        <mxCell id="nd7dtsp43JFpofKptU_Q-50" style="edgeStyle=orthogonalEdgeStyle;rounded=0;orthogonalLoop=1;jettySize=auto;html=1;exitX=0.5;exitY=1;exitDx=0;exitDy=0;entryX=0.5;entryY=0;entryDx=0;entryDy=0;" edge="1" parent="1" source="nd7dtsp43JFpofKptU_Q-41" target="nd7dtsp43JFpofKptU_Q-5">
          <mxGeometry relative="1" as="geometry" />
        </mxCell>
        <mxCell id="nd7dtsp43JFpofKptU_Q-51" style="edgeStyle=orthogonalEdgeStyle;rounded=0;orthogonalLoop=1;jettySize=auto;html=1;exitX=0.5;exitY=1;exitDx=0;exitDy=0;entryX=0.5;entryY=0;entryDx=0;entryDy=0;" edge="1" parent="1" source="nd7dtsp43JFpofKptU_Q-41" target="nd7dtsp43JFpofKptU_Q-6">
          <mxGeometry relative="1" as="geometry" />
        </mxCell>
        <mxCell id="nd7dtsp43JFpofKptU_Q-52" style="edgeStyle=orthogonalEdgeStyle;rounded=0;orthogonalLoop=1;jettySize=auto;html=1;exitX=0.5;exitY=1;exitDx=0;exitDy=0;" edge="1" parent="1" source="nd7dtsp43JFpofKptU_Q-41" target="nd7dtsp43JFpofKptU_Q-7">
          <mxGeometry relative="1" as="geometry" />
        </mxCell>
        <mxCell id="nd7dtsp43JFpofKptU_Q-53" value="N" style="edgeLabel;html=1;align=center;verticalAlign=middle;resizable=0;points=[];" vertex="1" connectable="0" parent="nd7dtsp43JFpofKptU_Q-52">
          <mxGeometry x="-0.9102" y="-1" relative="1" as="geometry">
            <mxPoint as="offset" />
          </mxGeometry>
        </mxCell>
        <mxCell id="nd7dtsp43JFpofKptU_Q-57" style="edgeStyle=orthogonalEdgeStyle;rounded=0;orthogonalLoop=1;jettySize=auto;html=1;exitX=1;exitY=0.5;exitDx=0;exitDy=0;entryX=0.5;entryY=0;entryDx=0;entryDy=0;" edge="1" parent="1" source="nd7dtsp43JFpofKptU_Q-41" target="nd7dtsp43JFpofKptU_Q-56">
          <mxGeometry relative="1" as="geometry" />
        </mxCell>
        <mxCell id="nd7dtsp43JFpofKptU_Q-58" value="Y" style="edgeLabel;html=1;align=center;verticalAlign=middle;resizable=0;points=[];" vertex="1" connectable="0" parent="nd7dtsp43JFpofKptU_Q-57">
          <mxGeometry x="0.0129" relative="1" as="geometry">
            <mxPoint as="offset" />
          </mxGeometry>
        </mxCell>
        <mxCell id="nd7dtsp43JFpofKptU_Q-41" value="succ &amp;amp;&amp;amp; exist" style="rhombus;whiteSpace=wrap;html=1;" vertex="1" parent="1">
          <mxGeometry x="455" y="340" width="80" height="80" as="geometry" />
        </mxCell>
        <mxCell id="nd7dtsp43JFpofKptU_Q-59" style="edgeStyle=orthogonalEdgeStyle;rounded=0;orthogonalLoop=1;jettySize=auto;html=1;exitX=0.5;exitY=1;exitDx=0;exitDy=0;" edge="1" parent="1" source="nd7dtsp43JFpofKptU_Q-56" target="nd7dtsp43JFpofKptU_Q-14">
          <mxGeometry relative="1" as="geometry" />
        </mxCell>
        <mxCell id="nd7dtsp43JFpofKptU_Q-56" value="CacheParse" style="rounded=0;whiteSpace=wrap;html=1;" vertex="1" parent="1">
          <mxGeometry x="810" y="753" width="100" height="40" as="geometry" />
        </mxCell>
        <mxCell id="nd7dtsp43JFpofKptU_Q-60" value="response" style="rounded=0;whiteSpace=wrap;html=1;" vertex="1" parent="1">
          <mxGeometry x="445" y="920" width="100" height="40" as="geometry" />
        </mxCell>
      </root>
    </mxGraphModel>
  </diagram>
</mxfile>
